<svg xmlns="http://www.w3.org/2000/svg" xmlns:xlink="http://www.w3.org/1999/xlink" viewBox="0 0 105.39 54.04"><defs><style>.cls-1{fill:#808285;}.cls-2{fill:url(#linear-gradient);}</style><linearGradient id="linear-gradient" x1="27.46" y1="18.18" x2="106.23" y2="18.18" gradientUnits="userSpaceOnUse"><stop offset="0" stop-color="#43bded"/><stop offset="0.12" stop-color="#42b6e7"/><stop offset="0.29" stop-color="#3ea3d8"/><stop offset="0.48" stop-color="#3984be"/><stop offset="0.7" stop-color="#32599b"/><stop offset="0.92" stop-color="#292973"/></linearGradient></defs><title>Asset 5</title><g id="Layer_2" data-name="Layer 2"><g id="Layer_1-2" data-name="Layer 1"><path class="cls-1" d="M1.85,50.44a3.25,3.25,0,0,0,3.57,2.67c2.3,0,3.19-1.15,3.19-2.52S8,48.28,5.2,47.6s-3.81-1.53-3.81-3.35c0-1.66,1.2-3.21,3.9-3.21s4,1.7,4.11,3.23h-1a2.82,2.82,0,0,0-3.15-2.33c-1.82,0-2.81.85-2.81,2.26s.83,1.92,3.15,2.5c3.55.88,4.07,2.3,4.07,3.82C9.65,52.37,8.3,54,5.38,54c-3.15,0-4.3-1.83-4.53-3.53Z" transform="translate(-0.85)"/><path class="cls-1" d="M11.72,44.83c1.33,4.64,2.1,7.31,2.25,8.1h0c.14-.72,1-3.55,2.45-8.1h1c1.67,5.56,2.18,7.16,2.34,7.86h0c.25-1,.66-2.34,2.32-7.86H23l-2.84,9h-1c-1-3.19-2.14-7.1-2.32-7.92h0c-.18.88-1.21,4.1-2.38,7.92H13.41l-2.65-9Z" transform="translate(-0.85)"/><path class="cls-1" d="M30.94,52.12a10.67,10.67,0,0,0,.13,1.71h-.86A5.57,5.57,0,0,1,30,52.44,2.94,2.94,0,0,1,27.09,54a2.68,2.68,0,0,1-3-2.7c0-2,1.53-2.88,4.23-2.88H30v-.92c0-.9-.27-2.1-2.32-2.1-1.82,0-2.09,1-2.29,1.69h-.9c.11-1,.72-2.52,3.21-2.52,2.05,0,3.2.86,3.2,2.84Zm-.88-2.88H28.3c-2,0-3.24.52-3.24,2.07a1.88,1.88,0,0,0,2.07,1.91c2.57,0,2.93-1.71,2.93-3.66Z" transform="translate(-0.85)"/><path class="cls-1" d="M33.91,47.27c0-1.51,0-2.16,0-2.44h.89c0,.28,0,.86,0,2A3.41,3.41,0,0,1,38,44.61v1a3.26,3.26,0,0,0-3.14,3.57v4.68h-.9Z" transform="translate(-0.85)"/><path class="cls-1" d="M39.55,47.15c0-.78,0-1.62,0-2.32h.88c0,.3.05,1.08,0,1.6a2.8,2.8,0,0,1,2.7-1.82,2.56,2.56,0,0,1,2.61,1.78,3.07,3.07,0,0,1,2.93-1.78c1.39,0,2.83.79,2.83,3.29v5.93h-.9V48c0-1.2-.43-2.52-2.11-2.52S46,46.9,46,48.64v5.19h-.88V48c0-1.31-.39-2.54-2.05-2.54S40.45,47,40.45,48.88v4.95h-.9Z" transform="translate(-0.85)"/><path class="cls-1" d="M54.52,41.23h1v11.7h6.77l-.18.9H54.52Z" transform="translate(-0.85)"/><path class="cls-1" d="M70.33,52.12a11,11,0,0,0,.12,1.71h-.86a5.76,5.76,0,0,1-.16-1.39,3,3,0,0,1-3,1.6,2.68,2.68,0,0,1-3-2.7c0-2,1.53-2.88,4.23-2.88h1.71v-.92c0-.9-.27-2.1-2.33-2.1-1.81,0-2.08,1-2.28,1.69h-.9c.11-1,.72-2.52,3.2-2.52,2.06,0,3.21.86,3.21,2.84Zm-.88-2.88H67.68c-2,0-3.24.52-3.24,2.07a1.88,1.88,0,0,0,2.07,1.91c2.58,0,2.94-1.71,2.94-3.66Z" transform="translate(-0.85)"/><path class="cls-1" d="M73.3,40.56h.9v5.78a3.09,3.09,0,0,1,3.07-1.73c2.13,0,3.7,1.75,3.7,4.52S79.56,54,77,54a2.79,2.79,0,0,1-2.84-1.63c0,.57,0,1.17,0,1.42h-.88c0-1,0-2,0-3.08ZM80,49.15c0-2.25-1.11-3.69-2.82-3.69-2.26,0-3,1.53-3,3.89,0,2.12.7,3.85,2.94,3.85C78.9,53.2,80,51.69,80,49.15Z" transform="translate(-0.85)"/><path class="cls-2" d="M28.55,30a.55.55,0,1,1-.54-.54A.54.54,0,0,1,28.55,30ZM33,30a.55.55,0,0,0-.55.55.55.55,0,0,0,.55.54.54.54,0,0,0,.54-.54A.55.55,0,0,0,33,30Zm2.45,2.15a.67.67,0,1,0,.66.66A.66.66,0,0,0,35.46,32.11ZM38,29.3a.67.67,0,1,0,.67.66A.67.67,0,0,0,38,29.3Zm2.37,2.81a.67.67,0,1,0,.66.66A.67.67,0,0,0,40.33,32.11Zm2.52-2.26a.66.66,0,1,0,.66.66A.66.66,0,0,0,42.85,29.85Zm2.58,2.26a.67.67,0,1,0,.67.66A.67.67,0,0,0,45.43,32.11ZM48,34.44A.76.76,0,0,0,48,36a.76.76,0,0,0,0-1.51Zm0-4.8a.76.76,0,0,0,0,1.51.76.76,0,0,0,0-1.51Zm4.88-.43a.76.76,0,1,0,.76.75A.76.76,0,0,0,52.85,29.21Zm-2.38,2.9a.76.76,0,1,0,.75.75A.75.75,0,0,0,50.47,32.11Zm2.38,2.57a.76.76,0,1,0,.76.75A.76.76,0,0,0,52.85,34.68ZM55.37,32a.76.76,0,1,0,.76.75A.76.76,0,0,0,55.37,32Zm3.48-1.8a.93.93,0,1,0-.93.93A.93.93,0,0,0,58.85,30.22Zm5,.93a.93.93,0,1,0,0-1.85.93.93,0,0,0,0,1.85Zm-3,.55a.93.93,0,0,0,0,1.85.93.93,0,1,0,0-1.85Zm-2.4,2.81a.93.93,0,0,0,0,1.85.93.93,0,1,0,0-1.85Zm11.2-5.21a.93.93,0,0,0,0,1.85.93.93,0,1,0,0-1.85Zm3.2,2.4a.93.93,0,0,0,0,1.85.93.93,0,1,0,0-1.85Zm-6.4,0a.93.93,0,0,0,0,1.85.93.93,0,1,0,0-1.85Zm0-4.8a.93.93,0,0,0,0,1.85.93.93,0,1,0,0-1.85Zm3.2-3.2a.93.93,0,1,0,.93.93A.93.93,0,0,0,69.58,23.7ZM64,34.1A.93.93,0,0,0,64,36a.93.93,0,1,0,0-1.85Zm5.6,0a.93.93,0,0,0,0,1.85.93.93,0,1,0,0-1.85Zm3.33-7.45a1.05,1.05,0,1,0,1,1.05A1,1,0,0,0,72.91,26.65Zm0-4.8a1,1,0,1,0,1,1A1,1,0,0,0,72.91,21.85Zm3.2,6.4a1.05,1.05,0,1,0,1,1.05A1,1,0,0,0,76.11,28.25Zm3.2-2.4a1,1,0,1,0,1,1A1,1,0,0,0,79.31,25.85Zm-3.2-2.4a1.05,1.05,0,1,0,1,1.05A1,1,0,0,0,76.11,23.45Zm0-4.8a1.05,1.05,0,1,0,1,1.05A1,1,0,0,0,76.11,18.65Zm3.2,12a1.05,1.05,0,1,0,1,1.05A1,1,0,0,0,79.31,30.65Zm0-10.4a1.05,1.05,0,1,0,1,1.05A1,1,0,0,0,79.31,20.25Zm3.6,4.95a1.05,1.05,0,1,0,1,1.05A1,1,0,0,0,82.91,25.2Zm0-4.8a1.05,1.05,0,1,0,1,1.05A1,1,0,0,0,82.91,20.4Zm-3.6-4.95a1.05,1.05,0,1,0,1,1.05A1,1,0,0,0,79.31,15.45Zm3.6.15a1,1,0,1,0,1,1A1,1,0,0,0,82.91,15.6Zm3.7-5.15a1.15,1.15,0,1,0,1.15,1.15A1.14,1.14,0,0,0,86.61,10.45Zm0,13.59a1.16,1.16,0,1,0,1.15,1.16A1.15,1.15,0,0,0,86.61,24Zm0-4a1.16,1.16,0,1,0,1.15,1.16A1.15,1.15,0,0,0,86.61,20Zm0-4.79a1.15,1.15,0,1,0,1.15,1.15A1.14,1.14,0,0,0,86.61,15.25Zm0-9.6A1.15,1.15,0,1,0,87.76,6.8,1.14,1.14,0,0,0,86.61,5.65Zm-3.7,5.15a1.05,1.05,0,1,0,1,1A1,1,0,0,0,82.91,10.8ZM90.73,7A1.28,1.28,0,1,0,92,8.28,1.27,1.27,0,0,0,90.73,7Zm0,4.8A1.28,1.28,0,1,0,92,13.07,1.27,1.27,0,0,0,90.73,11.8Zm0,4.8A1.28,1.28,0,1,0,92,17.87,1.27,1.27,0,0,0,90.73,16.6Zm0,4.8A1.28,1.28,0,1,0,92,22.67,1.27,1.27,0,0,0,90.73,21.4Zm0,4.8A1.28,1.28,0,1,0,92,27.47,1.27,1.27,0,0,0,90.73,26.2ZM86.61,28a1.16,1.16,0,1,0,1.15,1.16A1.15,1.15,0,0,0,86.61,28ZM90.73,2.2A1.28,1.28,0,1,0,92,3.48,1.27,1.27,0,0,0,90.73,2.2ZM95,9.6a1.15,1.15,0,1,0,1.15,1.15A1.15,1.15,0,0,0,95,9.6Zm0,13.6a1.15,1.15,0,1,0,1.15,1.15A1.15,1.15,0,0,0,95,23.2Zm0-4a1.15,1.15,0,1,0,1.15,1.15A1.15,1.15,0,0,0,95,19.2Zm.1-4.61a1.07,1.07,0,1,0,1.06,1.06A1.06,1.06,0,0,0,95.12,14.59ZM95,4.8A1.15,1.15,0,1,0,96.17,6,1.16,1.16,0,0,0,95,4.8ZM95,0a1.15,1.15,0,1,0,1.15,1.15A1.16,1.16,0,0,0,95,0Zm3.59,10.45a1.15,1.15,0,0,0,0,2.3,1.15,1.15,0,1,0,0-2.3Zm0,9.59a1.16,1.16,0,1,0,1.15,1.16A1.15,1.15,0,0,0,98.61,20Zm0-4.79a1.15,1.15,0,0,0,0,2.3,1.15,1.15,0,1,0,0-2.3Zm0-9.6A1.15,1.15,0,1,0,99.76,6.8,1.14,1.14,0,0,0,98.61,5.65Zm0-4.8A1.15,1.15,0,1,0,99.76,2,1.14,1.14,0,0,0,98.61.85ZM102,12.1a1,1,0,1,0,1,1.05A1,1,0,0,0,102,12.1Zm0-4.8a1,1,0,1,0,1,1A1,1,0,0,0,102,7.3Zm0-4.8a1,1,0,1,0,1,1A1,1,0,0,0,102,2.5ZM82.91,30a1.06,1.06,0,1,0,1,1.06A1.06,1.06,0,0,0,82.91,30ZM105.18,12.7a1.05,1.05,0,1,0,1,1.05A1,1,0,0,0,105.18,12.7Zm0-4a1.05,1.05,0,1,0,1,1.05A1,1,0,0,0,105.18,8.7ZM102,16.9A1.05,1.05,0,1,0,103,18,1,1,0,0,0,102,16.9Zm3.2-10.1a1,1,0,1,0-1.05-1A1,1,0,0,0,105.18,6.8ZM76.11,33.05a1,1,0,1,0,1,1.05A1,1,0,0,0,76.11,33.05Z" transform="translate(-0.85)"/></g></g></svg>